<svg xmlns="http://www.w3.org/2000/svg" viewBox="0 0 32 32"><g id="knife_2" data-name="knife 2"><path d="M25.94,6.84a6.92,6.92,0,0,0-2.7-4.63,1,1,0,0,0-1.4.18L11.54,15.91a1,1,0,0,0-1.41.19,1,1,0,0,0,.19,1.4l.8.61L5.63,25.32a1.89,1.89,0,0,0-.38,1.43A1.94,1.94,0,0,0,6,28l1.69,1.28a1.9,1.9,0,0,0,1.17.4A2,2,0,0,0,10.4,29l5.49-7.21h0l.8.6a1,1,0,0,0,.6.21,1,1,0,0,0,.8-.39,1,1,0,0,0-.19-1.41h0L24.57,12A7,7,0,0,0,25.94,6.84Zm-17,20.89L7.25,26.48l5.46-7.16.79.61h0l.8.61ZM23,10.8l-6.67,8.75-.8-.6,3-4A1,1,0,0,0,17,13.76l-3,4-.79-.6L22.77,4.48A5,5,0,0,1,24,7.1,5,5,0,0,1,23,10.8Z"></path></g></svg>