<svg xmlns="http://www.w3.org/2000/svg" viewBox="0 0 32 32"><g id="knife_3" data-name="knife 3"><path d="M29.48,3a1,1,0,0,0-.88-.65,1,1,0,0,0-1,.55A12.8,12.8,0,0,1,23.76,7.5a12.4,12.4,0,0,1-3.67,1.84,1,1,0,0,0-.62.56l-.74,1.75-1.85.47a1,1,0,0,0-.67.58l-.75,1.75-1.84.47a1,1,0,0,0-.4.21L11.09,17c-.12,0-.23-.05-.35-.06a2.7,2.7,0,0,0-2,.66,2.65,2.65,0,0,0-.74,1l-.69,1.61L3.64,23.33a2.37,2.37,0,0,0-.26,3.32l2.38,2.78h0a1.74,1.74,0,0,0,1.32.6,1.55,1.55,0,0,0,.37,0,1.76,1.76,0,0,0,1.31-1.23l.6-2.09,2-1.75,1.7-.43a2.64,2.64,0,0,0,1.11-.58,2.74,2.74,0,0,0,.95-2.21l1-.86,1.1.08a1,1,0,0,0,.72-.23l6.52-5.6c2.91-2.49,4.66-4,5.33-6.17A9.16,9.16,0,0,0,29.48,3ZM12.91,22.4a.71.71,0,0,1-.3.15L10.68,23a1,1,0,0,0-.4.21l-2.45,2.1a1,1,0,0,0-.31.48L7,27.76,4.9,25.35a.35.35,0,0,1,0-.5l3.86-3.31a1,1,0,0,0,.27-.37l.78-1.83a.66.66,0,0,1,.2-.27.74.74,0,0,1,.48-.18h.06a.72.72,0,0,1,.49.24L13,21.37A.73.73,0,0,1,12.91,22.4Zm15-14.06c-.47,1.55-1.78,2.73-4.71,5.24L17,18.9l-1.1-.08a1,1,0,0,0-.72.24l-.87.75-1.47-1.72,1.51-1.29,2.1-.53a1,1,0,0,0,.67-.58l.74-1.75,1.85-.47a1,1,0,0,0,.67-.58l.76-1.79a14.42,14.42,0,0,0,3.81-2,14.59,14.59,0,0,0,3.2-3.22A6.23,6.23,0,0,1,27.91,8.34Z"></path></g></svg>